# xmcd CD database file
#
# Track frame offsets:
#	150
#	7918
#	64580
#	95794
#	133348
#	170239
#	217721
#	233899
#
# Disc length: 3519 seconds
#
# Revision: 0
# Processed by: cddbd v1.5.2PL0 Copyright (c) Steve Scherf et al.
# Submitted via: CDex 1.51
#
DISCID=6b0dbd08
DTITLE=Rahsaan Roland Kirk - Carnegie Hall July 4 1975
DYEAR=1975
DGENRE=Jazz
TTITLE0=Ambiance_Tuning and Announcements
TTITLE1=Pedal Up
TTITLE2=Giant Steps
TTITLE3=Portrait of Those Beautiful Ladies
TTITLE4=Creole Love Call
TTITLE5=Echoes of Primitive Ohio and Chilli Dogs
TTITLE6=Satin Doll
TTITLE7=In a Sentimental Mood with McCoy Tyner
EXTD=YEAR: 1975
EXTT0=
EXTT1=
EXTT2=
EXTT3=
EXTT4=
EXTT5=
EXTT6=
EXTT7=
PLAYORDER=
